<svg t="1751779988028" class="icon" viewBox="0 0 1024 1024" version="1.1" xmlns="http://www.w3.org/2000/svg" p-id="10406" width="200" height="200"><path d="M315.549538 770.048l-134.852923 75.460923L46.473846 770.048v-156.120615l134.222769-75.460923 112.955077 64.43323 29.617231-16.068923v-152.969846l134.222769 78.139077 27.096616 13.548308v185.737846l-134.22277-75.460923-34.816 18.747077z m525.863385-231.739077l134.222769 75.618462v156.120615l-134.222769 75.460923-134.222769-75.460923v-115.475692l-34.816-18.747077-134.222769 75.460923v-185.895385L699.470769 433.860923v153.6l27.096616 16.068923z m135.483077-281.993846v266.555077l-94.208-53.563077-13.548308-7.719385v-140.051692l-142.572307-78.139077V119.571692zM667.805538 840.310154l89.009231 48.364308-244.499692 134.222769-244.657231-134.222769 88.536616-48.364308 21.267692-13.548308 134.222769 72.152616 134.222769-72.152616z m-527.28123-371.790769l-94.208 53.563077V256.315077l250.328615-136.900923v123.352615l-142.572308 77.981539v140.051692z m344.536615-156.120616v-18.747077l-107.756308-61.912615V78.769231L511.527385 0.787692 646.380308 78.769231v152.969846l-107.756308 61.912615v18.747077l134.222769 75.460923-134.222769 75.460923-27.096615 16.226462-161.319385-91.687385z" fill="#d81e06" p-id="10407"></path></svg>