<svg t="1751714255946" class="icon" viewBox="0 0 1024 1024" version="1.1" xmlns="http://www.w3.org/2000/svg" p-id="1398" width="200" height="200"><path d="M882.5 98H578.8c-23.7 0-43.5 19.4-43.5 43.6v126.8H419.4v-73.7c0-15.5-12.5-28-28-28H194.5c-15.5 0-28 12.5-28 28v197.1c0 15.5 12.5 28 28 28h73.7v115.1H141.5c-24.1 0-43.5 19.4-43.5 43.6v304c0 24.2 19.4 43.6 43.5 43.6h303.7c24.1 0 43.5-19.4 43.5-43.6V754.8h115.5v73.7c0 15.5 12.5 28 28 28h196.9c15.5 0 28-12.5 28-28v-197c0-15.5-12.5-28-28-28h-73.2V489.1h126.7c24.1 0 43.5-19.4 43.5-43.6v-304C926 117.4 906.6 98 882.5 98zM705.9 489.1v114.3h-73.7c-15.5 0-28 12.5-28 28v73.3H488.7V578.4c0-24.2-19.4-43.6-43.5-43.6H318.1V419.7h73.2c15.5 0 28-12.5 28-28v-73.3h115.9v127.2c0 24.2 19.4 43.6 43.5 43.6h127.2z m168.8-51.7H586.5V148.9h288.2v288.5z m-67.6 369.1H654.6V653.9h152.5v152.6zM371.1 371H215.6V215.3h155.5V371z m65.1 502.4H150.1V587h286.1v286.4z" p-id="1399" fill="#d81e06"></path></svg>